<svg width="24" height="24" viewBox="0 0 24 24" fill="none" xmlns="http://www.w3.org/2000/svg">
<path d="M2.83353 20.3327C2.72353 20.3323 2.61453 20.3536 2.51282 20.3955C2.41111 20.4374 2.3187 20.499 2.24092 20.5768C2.16314 20.6546 2.10153 20.747 2.05963 20.8487C2.01774 20.9504 1.9964 21.0594 1.99683 21.1694C1.99721 21.2789 2.01915 21.3872 2.06141 21.4882C2.10367 21.5892 2.16541 21.6809 2.24311 21.758C2.32081 21.8352 2.41295 21.8962 2.51425 21.9377C2.61556 21.9793 2.72405 22.0004 2.83353 22H21.1667C21.2761 22.0004 21.3846 21.9792 21.4859 21.9377C21.5872 21.8962 21.6794 21.8352 21.7571 21.758C21.8348 21.6809 21.8965 21.5892 21.9387 21.4882C21.981 21.3872 22.0029 21.2789 22.0033 21.1694C22.0038 21.0594 21.9824 20.9504 21.9405 20.8487C21.8986 20.747 21.837 20.6546 21.7592 20.5768C21.6815 20.4991 21.5891 20.4374 21.4874 20.3956C21.3856 20.3537 21.2767 20.3323 21.1667 20.3327H2.83353Z" fill="white" fill-opacity="0.2"/>
<path d="M5.66346 14.5006C4.56977 14.5006 3.66406 15.4064 3.66406 16.5001V21.1695C3.66445 21.279 3.6864 21.3873 3.72866 21.4883C3.77092 21.5893 3.83266 21.6809 3.91035 21.7581C3.98805 21.8352 4.08018 21.8962 4.18147 21.9378C4.28277 21.9793 4.39125 22.0004 4.50073 22H7.83516C8.05519 21.9992 8.26598 21.9115 8.42157 21.7559C8.57715 21.6003 8.6649 21.3895 8.66568 21.1695V16.5001C8.66568 15.4064 7.75994 14.5006 6.66625 14.5006H5.66346Z" fill="white" fill-opacity="0.5"/>
<path d="M11.5018 11.6645C10.4081 11.6645 9.50232 12.5702 9.50232 13.6639V21.1694C9.5031 21.3895 9.59085 21.6002 9.74644 21.7558C9.90202 21.9114 10.1128 21.9992 10.3328 21.9999H13.6673C13.8873 21.9992 14.0981 21.9114 14.2537 21.7558C14.4093 21.6002 14.497 21.3895 14.4978 21.1694V13.6639C14.4978 12.5702 13.5921 11.6645 12.4984 11.6645H11.5018Z" fill="white" fill-opacity="0.5"/>
<path d="M17.3339 9.16678C16.2402 9.16678 15.3345 10.0725 15.3345 11.1662V21.1695C15.3353 21.3895 15.423 21.6003 15.5786 21.7559C15.7342 21.9115 15.945 21.9992 16.165 22H19.4994C19.6089 22.0004 19.7174 21.9793 19.8187 21.9377C19.92 21.8962 20.0121 21.8352 20.0898 21.758C20.1675 21.6809 20.2293 21.5892 20.2715 21.4883C20.3138 21.3873 20.3357 21.2789 20.3361 21.1695V11.1662C20.3361 10.0725 19.4242 9.16678 18.3306 9.16678H17.3339Z" fill="white" fill-opacity="0.5"/>
<path d="M16.5533 2C16.3331 2.00043 16.122 2.08797 15.9662 2.24352C15.8103 2.39906 15.7223 2.60996 15.7215 2.83014C15.7211 2.93972 15.7422 3.04831 15.7838 3.1497C15.8254 3.25108 15.8866 3.34326 15.9639 3.42098C16.0411 3.49869 16.1329 3.5604 16.2341 3.60258C16.3352 3.64476 16.4437 3.66659 16.5533 3.6668H17.4143C12.7009 7.7192 7.76552 10.2365 2.6801 11.1788C2.46331 11.2199 2.27166 11.3452 2.14717 11.5274C2.02267 11.7095 1.9755 11.9336 2.01598 12.1505C2.05562 12.3672 2.17939 12.5593 2.36026 12.685C2.54112 12.8106 2.76437 12.8596 2.98123 12.8212C8.45678 11.8066 13.7252 9.08578 18.6693 4.79482V5.77634C18.6689 5.88578 18.69 5.99424 18.7315 6.09552C18.773 6.19679 18.834 6.28891 18.9111 6.3666C18.9882 6.44429 19.0798 6.50603 19.1808 6.54831C19.2817 6.59059 19.39 6.61257 19.4995 6.61299C19.6094 6.61342 19.7184 6.59208 19.8201 6.55019C19.9218 6.50829 20.0142 6.44668 20.092 6.3689C20.1698 6.29113 20.2314 6.19872 20.2733 6.09702C20.3152 5.99532 20.3365 5.88633 20.3361 5.77634V3.32172C20.3363 2.60242 19.7272 1.99984 19.0079 2H16.5533Z" fill="white" fill-opacity="0.5"/>
</svg>
